<mxfile host="app.diagrams.net" modified="2021-03-21T22:57:47.130Z" agent="5.0 (Windows NT 10.0; Win64; x64) AppleWebKit/537.36 (KHTML, like Gecko) Chrome/89.0.4389.90 Safari/537.36" etag="bPypPaIc1ds5QGsE74uL" version="14.4.9" type="github">
  <diagram id="C5RBs43oDa-KdzZeNtuy" name="Page-1">
    <mxGraphModel dx="2249" dy="762" grid="1" gridSize="10" guides="1" tooltips="1" connect="1" arrows="1" fold="1" page="1" pageScale="1" pageWidth="827" pageHeight="1169" background="#ffffff" math="0" shadow="0">
      <root>
        <mxCell id="WIyWlLk6GJQsqaUBKTNV-0" />
        <mxCell id="WIyWlLk6GJQsqaUBKTNV-1" parent="WIyWlLk6GJQsqaUBKTNV-0" />
        <mxCell id="orjA0yuQjfeGj3O9_unj-0" style="edgeStyle=orthogonalEdgeStyle;rounded=0;orthogonalLoop=1;jettySize=auto;html=1;entryX=0.5;entryY=0;entryDx=0;entryDy=0;" edge="1" parent="WIyWlLk6GJQsqaUBKTNV-1" source="1KBEaMseaGVfL4JaP0UH-7" target="1KBEaMseaGVfL4JaP0UH-8">
          <mxGeometry relative="1" as="geometry" />
        </mxCell>
        <mxCell id="1KBEaMseaGVfL4JaP0UH-7" value="Start" style="ellipse;whiteSpace=wrap;html=1;fillColor=#ffe6cc;strokeColor=#d79b00;" parent="WIyWlLk6GJQsqaUBKTNV-1" vertex="1">
          <mxGeometry x="330" y="6" width="120" height="80" as="geometry" />
        </mxCell>
        <mxCell id="orjA0yuQjfeGj3O9_unj-1" style="edgeStyle=orthogonalEdgeStyle;rounded=0;orthogonalLoop=1;jettySize=auto;html=1;exitX=0;exitY=0.5;exitDx=0;exitDy=0;" edge="1" parent="WIyWlLk6GJQsqaUBKTNV-1" source="1KBEaMseaGVfL4JaP0UH-8" target="orjA0yuQjfeGj3O9_unj-3">
          <mxGeometry relative="1" as="geometry">
            <mxPoint x="70" y="320" as="targetPoint" />
            <mxPoint x="242.5" y="200" as="sourcePoint" />
          </mxGeometry>
        </mxCell>
        <mxCell id="orjA0yuQjfeGj3O9_unj-2" style="edgeStyle=orthogonalEdgeStyle;rounded=0;orthogonalLoop=1;jettySize=auto;html=1;" edge="1" parent="WIyWlLk6GJQsqaUBKTNV-1" source="1KBEaMseaGVfL4JaP0UH-8" target="orjA0yuQjfeGj3O9_unj-4">
          <mxGeometry relative="1" as="geometry">
            <mxPoint x="650" y="320" as="targetPoint" />
          </mxGeometry>
        </mxCell>
        <mxCell id="1KBEaMseaGVfL4JaP0UH-8" value="Paid or add lesson?" style="shape=parallelogram;perimeter=parallelogramPerimeter;whiteSpace=wrap;html=1;fixedSize=1;fillColor=#d5e8d4;strokeColor=#82b366;" parent="WIyWlLk6GJQsqaUBKTNV-1" vertex="1">
          <mxGeometry x="322.5" y="170" width="135" height="60" as="geometry" />
        </mxCell>
        <mxCell id="orjA0yuQjfeGj3O9_unj-5" style="edgeStyle=orthogonalEdgeStyle;rounded=0;orthogonalLoop=1;jettySize=auto;html=1;" edge="1" parent="WIyWlLk6GJQsqaUBKTNV-1" source="orjA0yuQjfeGj3O9_unj-3" target="orjA0yuQjfeGj3O9_unj-6">
          <mxGeometry relative="1" as="geometry">
            <mxPoint x="150" y="400" as="targetPoint" />
          </mxGeometry>
        </mxCell>
        <mxCell id="orjA0yuQjfeGj3O9_unj-3" value="Paid" style="rhombus;whiteSpace=wrap;html=1;fillColor=#e1d5e7;strokeColor=#9673a6;" vertex="1" parent="WIyWlLk6GJQsqaUBKTNV-1">
          <mxGeometry x="110" y="240" width="80" height="80" as="geometry" />
        </mxCell>
        <mxCell id="orjA0yuQjfeGj3O9_unj-8" style="edgeStyle=orthogonalEdgeStyle;rounded=0;orthogonalLoop=1;jettySize=auto;html=1;entryX=0.5;entryY=0;entryDx=0;entryDy=0;" edge="1" parent="WIyWlLk6GJQsqaUBKTNV-1" source="orjA0yuQjfeGj3O9_unj-4" target="orjA0yuQjfeGj3O9_unj-7">
          <mxGeometry relative="1" as="geometry" />
        </mxCell>
        <mxCell id="orjA0yuQjfeGj3O9_unj-4" value="Add &lt;br&gt;lesson" style="rhombus;whiteSpace=wrap;html=1;fillColor=#e1d5e7;strokeColor=#9673a6;" vertex="1" parent="WIyWlLk6GJQsqaUBKTNV-1">
          <mxGeometry x="600" y="240" width="80" height="80" as="geometry" />
        </mxCell>
        <mxCell id="orjA0yuQjfeGj3O9_unj-12" style="edgeStyle=orthogonalEdgeStyle;rounded=0;orthogonalLoop=1;jettySize=auto;html=1;" edge="1" parent="WIyWlLk6GJQsqaUBKTNV-1" source="orjA0yuQjfeGj3O9_unj-6" target="orjA0yuQjfeGj3O9_unj-11">
          <mxGeometry relative="1" as="geometry">
            <Array as="points">
              <mxPoint x="60" y="400" />
            </Array>
          </mxGeometry>
        </mxCell>
        <mxCell id="orjA0yuQjfeGj3O9_unj-13" style="edgeStyle=orthogonalEdgeStyle;rounded=0;orthogonalLoop=1;jettySize=auto;html=1;exitX=1;exitY=0.5;exitDx=0;exitDy=0;entryX=0.5;entryY=0;entryDx=0;entryDy=0;" edge="1" parent="WIyWlLk6GJQsqaUBKTNV-1" source="orjA0yuQjfeGj3O9_unj-6" target="orjA0yuQjfeGj3O9_unj-16">
          <mxGeometry relative="1" as="geometry">
            <mxPoint x="270" y="430" as="targetPoint" />
            <Array as="points">
              <mxPoint x="229" y="400" />
            </Array>
          </mxGeometry>
        </mxCell>
        <mxCell id="orjA0yuQjfeGj3O9_unj-6" value="What is their &lt;br&gt;name?" style="shape=parallelogram;perimeter=parallelogramPerimeter;whiteSpace=wrap;html=1;fixedSize=1;" vertex="1" parent="WIyWlLk6GJQsqaUBKTNV-1">
          <mxGeometry x="90" y="370" width="120" height="60" as="geometry" />
        </mxCell>
        <mxCell id="orjA0yuQjfeGj3O9_unj-14" style="edgeStyle=orthogonalEdgeStyle;rounded=0;orthogonalLoop=1;jettySize=auto;html=1;" edge="1" parent="WIyWlLk6GJQsqaUBKTNV-1" source="orjA0yuQjfeGj3O9_unj-7" target="orjA0yuQjfeGj3O9_unj-17">
          <mxGeometry relative="1" as="geometry">
            <mxPoint x="550" y="480" as="targetPoint" />
            <Array as="points">
              <mxPoint x="520" y="400" />
            </Array>
          </mxGeometry>
        </mxCell>
        <mxCell id="orjA0yuQjfeGj3O9_unj-15" style="edgeStyle=orthogonalEdgeStyle;rounded=0;orthogonalLoop=1;jettySize=auto;html=1;" edge="1" parent="WIyWlLk6GJQsqaUBKTNV-1" source="orjA0yuQjfeGj3O9_unj-7" target="orjA0yuQjfeGj3O9_unj-18">
          <mxGeometry relative="1" as="geometry">
            <mxPoint x="750" y="480" as="targetPoint" />
            <Array as="points">
              <mxPoint x="750" y="400" />
            </Array>
          </mxGeometry>
        </mxCell>
        <mxCell id="orjA0yuQjfeGj3O9_unj-7" value="What is their &lt;br&gt;name?" style="shape=parallelogram;perimeter=parallelogramPerimeter;whiteSpace=wrap;html=1;fixedSize=1;" vertex="1" parent="WIyWlLk6GJQsqaUBKTNV-1">
          <mxGeometry x="580" y="370" width="120" height="60" as="geometry" />
        </mxCell>
        <mxCell id="orjA0yuQjfeGj3O9_unj-11" value="Print name and column &lt;br&gt;&quot;Total_owing&quot;" style="shape=parallelogram;perimeter=parallelogramPerimeter;whiteSpace=wrap;html=1;fixedSize=1;" vertex="1" parent="WIyWlLk6GJQsqaUBKTNV-1">
          <mxGeometry x="-1" y="470" width="120" height="60" as="geometry" />
        </mxCell>
        <mxCell id="orjA0yuQjfeGj3O9_unj-16" value="How much have&lt;br&gt;they paid?" style="shape=parallelogram;perimeter=parallelogramPerimeter;whiteSpace=wrap;html=1;fixedSize=1;" vertex="1" parent="WIyWlLk6GJQsqaUBKTNV-1">
          <mxGeometry x="169" y="470" width="120" height="60" as="geometry" />
        </mxCell>
        <mxCell id="orjA0yuQjfeGj3O9_unj-17" value="Print name and column&amp;nbsp;&lt;br&gt;&quot;Total_lessons&quot;" style="shape=parallelogram;perimeter=parallelogramPerimeter;whiteSpace=wrap;html=1;fixedSize=1;" vertex="1" parent="WIyWlLk6GJQsqaUBKTNV-1">
          <mxGeometry x="457.5" y="450" width="120" height="60" as="geometry" />
        </mxCell>
        <mxCell id="orjA0yuQjfeGj3O9_unj-18" value="Are you sure you &lt;br&gt;want to add a lesson &lt;br&gt;onto (name)?" style="shape=parallelogram;perimeter=parallelogramPerimeter;whiteSpace=wrap;html=1;fixedSize=1;" vertex="1" parent="WIyWlLk6GJQsqaUBKTNV-1">
          <mxGeometry x="670" y="450" width="140" height="60" as="geometry" />
        </mxCell>
      </root>
    </mxGraphModel>
  </diagram>
</mxfile>
